<svg width="140" height="140" viewBox="0 0 140 140" fill="none" xmlns="http://www.w3.org/2000/svg">
<path d="M78.75 122.5V78.75C78.75 77.5897 79.2109 76.4769 80.0314 75.6564C80.8518 74.8359 81.9646 74.375 83.125 74.375H100.625C101.785 74.375 102.898 74.8359 103.719 75.6564C104.539 76.4769 105 77.5897 105 78.75V122.5M78.75 122.5H13.7666M78.75 122.5H105M105 122.5H126.233M118.125 122.5V54.5358C120.45 53.1936 122.435 51.3344 123.927 49.1022C125.418 46.8699 126.376 44.3243 126.726 41.6625C127.077 39.0008 126.81 36.2941 125.946 33.752C125.083 31.2098 123.646 28.9004 121.747 27.0025L114.806 20.0667C113.166 18.4253 110.942 17.502 108.622 17.5H31.3716C29.0518 17.502 26.8277 18.4253 25.1883 20.0667L18.2525 26.9967C16.358 28.8968 14.9252 31.2066 14.0645 33.748C13.2038 36.2894 12.9383 38.9945 13.2883 41.6548C13.6383 44.315 14.5945 46.8594 16.0833 49.0917C17.572 51.3239 19.5535 53.1845 21.875 54.53M21.875 122.494V54.5417C25.3751 56.5599 29.4656 57.3053 33.4526 56.6514C37.4397 55.9975 41.0778 53.9846 43.75 50.9542C45.3909 52.8176 47.4104 54.3096 49.6737 55.3306C51.937 56.3516 54.392 56.8781 56.875 56.875C62.1016 56.875 66.7916 54.5825 70 50.9483C71.6403 52.8128 73.6596 54.3059 75.9229 55.328C78.1863 56.35 80.6416 56.8774 83.125 56.875C88.3516 56.875 93.0416 54.5825 96.25 50.9483C98.9229 53.9779 102.561 55.9896 106.548 56.6424C110.535 57.2953 114.625 56.5489 118.125 54.53M39.375 104.994H61.25C62.4103 104.994 63.5231 104.533 64.3436 103.713C65.164 102.892 65.625 101.779 65.625 100.619V78.75C65.625 77.5897 65.164 76.4769 64.3436 75.6564C63.5231 74.8359 62.4103 74.375 61.25 74.375H39.375C38.2146 74.375 37.1018 74.8359 36.2814 75.6564C35.4609 76.4769 35 77.5897 35 78.75V100.625C35 103.046 36.96 104.994 39.375 104.994Z" stroke="white" stroke-width="7" stroke-linecap="round" stroke-linejoin="round"/>
</svg>
